<svg width="16" height="16" viewBox="0 0 16 16" fill="none" xmlns="http://www.w3.org/2000/svg">
<path d="M12.82 10.1733L11.1267 9.97993C10.9276 9.95654 10.7258 9.97858 10.5364 10.0444C10.347 10.1102 10.175 10.2181 10.0334 10.3599L8.80669 11.5866C6.91415 10.6241 5.37588 9.0858 4.41336 7.19326L5.64669 5.95993C5.93336 5.67326 6.07336 5.27326 6.02669 4.86659L5.83336 3.18659C5.79556 2.86138 5.63949 2.56142 5.39485 2.34382C5.15021 2.12623 4.8341 2.0062 4.50669 2.00659H3.35336C2.60003 2.00659 1.97336 2.63326 2.02003 3.38659C2.37336 9.07993 6.92669 13.6266 12.6134 13.9799C13.3667 14.0266 13.9934 13.3999 13.9934 12.6466V11.4933C14 10.8199 13.4934 10.2533 12.82 10.1733Z" fill="#005264"/>
</svg>
